<svg width="140px" height="53px" viewBox="0 0 140 53" version="1.1" xmlns="http://www.w3.org/2000/svg"
     xmlns:xlink="http://www.w3.org/1999/xlink">
    <g stroke="none" stroke-width="1" fill="none" fill-rule="evenodd">
        <g transform="translate(-890.000000, -120.000000)" fill="#4EBE9C">
            <g transform="translate(890.000000, 120.000000)">
                <g transform="translate(0.000000, 13.000000)">
                    <path d="M125.620405,12.1563707 L130.602074,12.1563707 C133.876527,12.1563707 135.641383,10.6303056 135.641383,7.85264768 C135.641383,4.87188033 133.673417,3.34581528 130.731076,3.34581528 L125.620405,3.34581528 L125.620405,12.1563707 Z M131.247084,0 C136.961594,0 139.541632,3.52971161 139.541632,7.70443272 C139.541632,11.8791538 137.021977,13.9569079 134.905797,14.7309193 L140,25.1004764 L135.71549,25.1004764 L131.153763,15.4280785 L125.620405,15.4280785 L125.620405,25.1004764 L121.849158,25.1004764 L121.849158,0 L131.247084,0 Z M115.928794,21.6448723 L115.928794,25.1004764 L100.497971,25.1004764 L100.497971,0 L115.928794,0 L115.928794,3.45834885 L104.269218,3.45834885 L104.269218,10.6852001 L115.278295,10.6852001 L115.278295,13.9980787 L104.269218,13.9980787 L104.269218,21.6448723 L115.928794,21.6448723 Z M96.0295646,0 L86.8182798,10.7400945 L96.4906778,25.1004764 L91.799949,25.1004764 L84.0049405,13.4985394 L81.0790676,16.6412453 L81.0790676,25.1004764 L77.2913522,25.1004764 L77.2913522,0 L81.0790676,0 L81.0790676,11.6952575 L81.2437509,11.6952575 L91.7093732,0 L96.0295646,0 Z M57.4854432,12.1563707 L62.4698571,12.1563707 C65.7415649,12.1563707 67.5091654,10.6303056 67.5091654,7.85264768 C67.5091654,4.87188033 65.5412002,3.34581528 62.598859,3.34581528 L57.4854432,3.34581528 L57.4854432,12.1563707 Z M63.1121219,0 C68.812908,0 71.4066697,3.52971161 71.4066697,7.70443272 C71.4066697,11.8791538 68.892505,13.9569079 66.7735801,14.7309193 L71.8677829,25.1004764 L67.5805282,25.1004764 L63.0215461,15.4280785 L57.4854432,15.4280785 L57.4854432,25.1004764 L53.7169408,25.1004764 L53.7169408,0 L63.1121219,0 Z M38.6182289,4.28450997 L38.4700139,4.28450997 L34.9403023,14.96971 L42.1479405,14.96971 L38.6182289,4.28450997 Z M31.6658498,25.1004764 L27.842453,25.1004764 L36.5953693,0 L40.6959829,0 L49.4324308,25.1004764 L45.3867116,25.1004764 L43.0317407,18.0959476 L34.0345443,18.0959476 L31.6658498,25.1004764 Z M3.41992276,25.1004764 L0,25.1004764 L0,0 L3.76850236,0 L11.6760445,17.9669457 L11.8242594,17.9669457 L19.7125885,0 L23.4838356,0 L23.4838356,25.1004764 L20.0364656,25.1004764 L20.0364656,7.5205364 L19.8333562,7.5205364 L13.1746623,22.4902464 L10.2981944,22.4902464 L3.60381908,7.5205364 L3.41992276,7.5205364 L3.41992276,25.1004764 Z"></path>
                </g>
            </g>
        </g>
    </g>
</svg>